<svg xmlns="http://www.w3.org/2000/svg" width="30.089" height="30.302" viewBox="0 0 30.089 30.302">
  <path id="phone-3" d="M10.633,8.415a3.044,3.044,0,0,0,0-4.3L7.406.89a3.042,3.042,0,0,0-4.3,0L1.336,2.66A4.554,4.554,0,0,0,.759,8.4,70.717,70.717,0,0,0,20.528,28.17a4.562,4.562,0,0,0,5.741-.575l1.769-1.77a3.04,3.04,0,0,0,0-4.3L24.812,18.3a3.04,3.04,0,0,0-4.3,0l-1.076,1.076A72.164,72.164,0,0,1,9.558,9.494Z" transform="translate(0.66 0.714)" fill="none" stroke="#fff" stroke-linecap="round" stroke-linejoin="round" stroke-miterlimit="10" stroke-width="1" opacity="0.5"/>
</svg>
